<svg height="3534" width="720" xmlns="http://www.w3.org/2000/svg">
<rect height="3534" fill="#555" width="720"></rect>
<text fill="#7f7" font-family="Courier New" font-size="12" xml:space="preserve">
<tspan x="10" y="26">34 megabytes installed</tspan>
<tspan x="10" y="42"></tspan>
<tspan x="10" y="58">node_modules</tspan>
<tspan x="10" y="74">└─┬ wiki@0.10.3 </tspan>
<tspan x="10" y="90">  ├── coffee-script@1.12.5 </tspan>
<tspan x="10" y="106">  ├── coffee-trace@1.4.0 </tspan>
<tspan x="10" y="122">  ├─┬ config-chain@1.1.11 </tspan>
<tspan x="10" y="138">  │ ├── ini@1.3.4 </tspan>
<tspan x="10" y="154">  │ └── proto-list@1.2.4 </tspan>
<tspan x="10" y="170">  ├─┬ glob@7.1.1 </tspan>
<tspan x="10" y="186">  │ ├── fs.realpath@1.0.0 </tspan>
<tspan x="10" y="202">  │ ├─┬ inflight@1.0.6 </tspan>
<tspan x="10" y="218">  │ │ └── wrappy@1.0.2 </tspan>
<tspan x="10" y="234">  │ ├── inherits@2.0.3 </tspan>
<tspan x="10" y="250">  │ ├─┬ minimatch@3.0.3 </tspan>
<tspan x="10" y="266">  │ │ └─┬ brace-expansion@1.1.7 </tspan>
<tspan x="10" y="282">  │ │   ├── balanced-match@0.4.2 </tspan>
<tspan x="10" y="298">  │ │   └── concat-map@0.0.1 </tspan>
<tspan x="10" y="314">  │ ├── once@1.4.0 </tspan>
<tspan x="10" y="330">  │ └── path-is-absolute@1.0.1 </tspan>
<tspan x="10" y="346">  ├── lodash@4.17.4 </tspan>
<tspan x="10" y="362">  ├─┬ optimist@0.6.1 </tspan>
<tspan x="10" y="378">  │ ├── minimist@0.0.10 </tspan>
<tspan x="10" y="394">  │ └── wordwrap@0.0.3 </tspan>
<tspan x="10" y="410">  ├─┬ wiki-client@0.8.3 </tspan>
<tspan x="10" y="426">  │ └── underscore@1.8.3 </tspan>
<tspan x="10" y="442">  ├─┬ wiki-plugin-activity@0.2.9 </tspan>
<tspan x="10" y="458">  │ └─┬ virtual-dom@2.1.1 </tspan>
<tspan x="10" y="474">  │   ├── browser-split@0.0.1 </tspan>
<tspan x="10" y="490">  │   ├─┬ error@4.4.0 </tspan>
<tspan x="10" y="506">  │   │ ├── camelize@1.0.0 </tspan>
<tspan x="10" y="522">  │   │ ├── string-template@0.2.1 </tspan>
<tspan x="10" y="538">  │   │ └── xtend@4.0.1 </tspan>
<tspan x="10" y="554">  │   ├─┬ ev-store@7.0.0 </tspan>
<tspan x="10" y="570">  │   │ └── individual@3.0.0 </tspan>
<tspan x="10" y="586">  │   ├─┬ global@4.3.1 </tspan>
<tspan x="10" y="602">  │   │ ├─┬ min-document@2.19.0 </tspan>
<tspan x="10" y="618">  │   │ │ └── dom-walk@0.1.1 </tspan>
<tspan x="10" y="634">  │   │ └── process@0.5.2 </tspan>
<tspan x="10" y="650">  │   ├── is-object@1.0.1 </tspan>
<tspan x="10" y="666">  │   ├── next-tick@0.2.2 </tspan>
<tspan x="10" y="682">  │   ├── x-is-array@0.1.0 </tspan>
<tspan x="10" y="698">  │   └── x-is-string@0.1.0 </tspan>
<tspan x="10" y="714">  ├── wiki-plugin-audio@0.1.5 </tspan>
<tspan x="10" y="730">  ├── wiki-plugin-bars@0.3.0 </tspan>
<tspan x="10" y="746">  ├── wiki-plugin-bytebeat@0.2.3 </tspan>
<tspan x="10" y="762">  ├── wiki-plugin-calculator@0.2.2 </tspan>
<tspan x="10" y="778">  ├── wiki-plugin-calendar@0.2.2 </tspan>
<tspan x="10" y="794">  ├── wiki-plugin-changes@0.2.4 </tspan>
<tspan x="10" y="810">  ├── wiki-plugin-chart@0.3.2 </tspan>
<tspan x="10" y="826">  ├── wiki-plugin-code@0.2.2 </tspan>
<tspan x="10" y="842">  ├── wiki-plugin-data@0.2.2 </tspan>
<tspan x="10" y="858">  ├── wiki-plugin-factory@0.2.4 </tspan>
<tspan x="10" y="874">  ├── wiki-plugin-favicon@0.2.2 </tspan>
<tspan x="10" y="890">  ├── wiki-plugin-federatedwiki@0.2.2 </tspan>
<tspan x="10" y="906">  ├── wiki-plugin-flagmatic@0.1.3 </tspan>
<tspan x="10" y="922">  ├── wiki-plugin-force@0.3.0 </tspan>
<tspan x="10" y="938">  ├── wiki-plugin-future@0.2.2 </tspan>
<tspan x="10" y="954">  ├── wiki-plugin-grep@0.1.5 </tspan>
<tspan x="10" y="970">  ├── wiki-plugin-html@0.2.4 </tspan>
<tspan x="10" y="986">  ├── wiki-plugin-image@0.2.2 </tspan>
<tspan x="10" y="1002">  ├── wiki-plugin-line@0.3.0 </tspan>
<tspan x="10" y="1018">  ├── wiki-plugin-map@0.3.4 </tspan>
<tspan x="10" y="1034">  ├── wiki-plugin-markdown@0.2.6 </tspan>
<tspan x="10" y="1050">  ├── wiki-plugin-mathjax@0.2.4 </tspan>
<tspan x="10" y="1066">  ├── wiki-plugin-metabolism@0.2.2 </tspan>
<tspan x="10" y="1082">  ├── wiki-plugin-method@0.2.3 </tspan>
<tspan x="10" y="1098">  ├── wiki-plugin-pagefold@0.2.3 </tspan>
<tspan x="10" y="1114">  ├── wiki-plugin-paragraph@0.2.2 </tspan>
<tspan x="10" y="1130">  ├── wiki-plugin-pushpin@0.3.0 </tspan>
<tspan x="10" y="1146">  ├── wiki-plugin-radar@0.3.0 </tspan>
<tspan x="10" y="1162">  ├── wiki-plugin-reduce@0.2.2 </tspan>
<tspan x="10" y="1178">  ├── wiki-plugin-reference@0.2.3 </tspan>
<tspan x="10" y="1194">  ├── wiki-plugin-report@0.2.2 </tspan>
<tspan x="10" y="1210">  ├── wiki-plugin-rollup@0.2.2 </tspan>
<tspan x="10" y="1226">  ├── wiki-plugin-roster@0.1.6 </tspan>
<tspan x="10" y="1242">  ├── wiki-plugin-scatter@0.3.0 </tspan>
<tspan x="10" y="1258">  ├── wiki-plugin-search@0.1.1 </tspan>
<tspan x="10" y="1274">  ├── wiki-plugin-transport@0.1.2 </tspan>
<tspan x="10" y="1290">  ├── wiki-plugin-video@0.2.6 </tspan>
<tspan x="10" y="1306">  ├─┬ wiki-security-friends@0.1.0 </tspan>
<tspan x="10" y="1322">  │ └── seedrandom@2.4.3 </tspan>
<tspan x="10" y="1338">  ├─┬ wiki-security-passportjs@0.1.2 </tspan>
<tspan x="10" y="1354">  │ ├── es6-promise@4.1.0 </tspan>
<tspan x="10" y="1370">  │ ├─┬ passport@0.3.2 </tspan>
<tspan x="10" y="1386">  │ │ ├── passport-strategy@1.0.0 </tspan>
<tspan x="10" y="1402">  │ │ └── pause@0.0.1 </tspan>
<tspan x="10" y="1418">  │ ├─┬ passport-github@1.1.0 </tspan>
<tspan x="10" y="1434">  │ │ └─┬ passport-oauth2@1.4.0 </tspan>
<tspan x="10" y="1450">  │ │   ├── oauth@0.9.15 </tspan>
<tspan x="10" y="1466">  │ │   └── uid2@0.0.3 </tspan>
<tspan x="10" y="1482">  │ ├── passport-google-oauth20@1.0.0 </tspan>
<tspan x="10" y="1498">  │ ├─┬ passport-twitter@1.0.4 </tspan>
<tspan x="10" y="1514">  │ │ ├── passport-oauth1@1.1.0 </tspan>
<tspan x="10" y="1530">  │ │ └─┬ xtraverse@0.1.0 </tspan>
<tspan x="10" y="1546">  │ │   └── xmldom@0.1.27 </tspan>
<tspan x="10" y="1562">  │ ├─┬ persona-pass@0.2.1 </tspan>
<tspan x="10" y="1578">  │ │ └── pkginfo@0.2.3 </tspan>
<tspan x="10" y="1594">  │ ├── qs@6.4.0 </tspan>
<tspan x="10" y="1610">  │ └── whatwg-fetch@2.0.3 </tspan>
<tspan x="10" y="1626">  └─┬ wiki-server@0.9.1 </tspan>
<tspan x="10" y="1642">    ├── async@2.3.0 </tspan>
<tspan x="10" y="1658">    ├─┬ body-parser@1.17.1 </tspan>
<tspan x="10" y="1674">    │ ├── bytes@2.4.0 </tspan>
<tspan x="10" y="1690">    │ ├── content-type@1.0.2 </tspan>
<tspan x="10" y="1706">    │ ├─┬ debug@2.6.1 </tspan>
<tspan x="10" y="1722">    │ │ └── ms@0.7.2 </tspan>
<tspan x="10" y="1738">    │ ├── depd@1.1.0 </tspan>
<tspan x="10" y="1754">    │ ├── http-errors@1.6.1 </tspan>
<tspan x="10" y="1770">    │ ├── iconv-lite@0.4.15 </tspan>
<tspan x="10" y="1786">    │ ├─┬ on-finished@2.3.0 </tspan>
<tspan x="10" y="1802">    │ │ └── ee-first@1.1.1 </tspan>
<tspan x="10" y="1818">    │ ├─┬ raw-body@2.2.0 </tspan>
<tspan x="10" y="1834">    │ │ └── unpipe@1.0.0 </tspan>
<tspan x="10" y="1850">    │ └─┬ type-is@1.6.15 </tspan>
<tspan x="10" y="1866">    │   ├── media-typer@0.3.0 </tspan>
<tspan x="10" y="1882">    │   └─┬ mime-types@2.1.15 </tspan>
<tspan x="10" y="1898">    │     └── mime-db@1.27.0 </tspan>
<tspan x="10" y="1914">    ├─┬ client-sessions@0.7.0 </tspan>
<tspan x="10" y="1930">    │ └─┬ cookies@0.5.0 </tspan>
<tspan x="10" y="1946">    │   └── keygrip@1.0.1 </tspan>
<tspan x="10" y="1962">    ├─┬ cookie-parser@1.4.3 </tspan>
<tspan x="10" y="1978">    │ ├── cookie@0.3.1 </tspan>
<tspan x="10" y="1994">    │ └── cookie-signature@1.0.6 </tspan>
<tspan x="10" y="2010">    ├─┬ errorhandler@1.5.0 </tspan>
<tspan x="10" y="2026">    │ ├─┬ accepts@1.3.3 </tspan>
<tspan x="10" y="2042">    │ │ └── negotiator@0.6.1 </tspan>
<tspan x="10" y="2058">    │ └── escape-html@1.0.3 </tspan>
<tspan x="10" y="2074">    ├─┬ event-stream@3.3.4 </tspan>
<tspan x="10" y="2090">    │ ├── duplexer@0.1.1 </tspan>
<tspan x="10" y="2106">    │ ├── from@0.1.7 </tspan>
<tspan x="10" y="2122">    │ ├── map-stream@0.1.0 </tspan>
<tspan x="10" y="2138">    │ ├── pause-stream@0.0.11 </tspan>
<tspan x="10" y="2154">    │ ├── split@0.3.3 </tspan>
<tspan x="10" y="2170">    │ └── stream-combiner@0.0.4 </tspan>
<tspan x="10" y="2186">    ├─┬ express@4.15.2 </tspan>
<tspan x="10" y="2202">    │ ├── array-flatten@1.1.1 </tspan>
<tspan x="10" y="2218">    │ ├── content-disposition@0.5.2 </tspan>
<tspan x="10" y="2234">    │ ├── encodeurl@1.0.1 </tspan>
<tspan x="10" y="2250">    │ ├── etag@1.8.0 </tspan>
<tspan x="10" y="2266">    │ ├─┬ finalhandler@1.0.1 </tspan>
<tspan x="10" y="2282">    │ │ └── debug@2.6.3 </tspan>
<tspan x="10" y="2298">    │ ├── fresh@0.5.0 </tspan>
<tspan x="10" y="2314">    │ ├── merge-descriptors@1.0.1 </tspan>
<tspan x="10" y="2330">    │ ├── methods@1.1.2 </tspan>
<tspan x="10" y="2346">    │ ├── parseurl@1.3.1 </tspan>
<tspan x="10" y="2362">    │ ├── path-to-regexp@0.1.7 </tspan>
<tspan x="10" y="2378">    │ ├─┬ proxy-addr@1.1.4 </tspan>
<tspan x="10" y="2394">    │ │ ├── forwarded@0.1.0 </tspan>
<tspan x="10" y="2410">    │ │ └── ipaddr.js@1.3.0 </tspan>
<tspan x="10" y="2426">    │ ├── range-parser@1.2.0 </tspan>
<tspan x="10" y="2442">    │ ├─┬ send@0.15.1 </tspan>
<tspan x="10" y="2458">    │ │ ├── destroy@1.0.4 </tspan>
<tspan x="10" y="2474">    │ │ └── mime@1.3.4 </tspan>
<tspan x="10" y="2490">    │ ├── setprototypeof@1.0.3 </tspan>
<tspan x="10" y="2506">    │ ├── statuses@1.3.1 </tspan>
<tspan x="10" y="2522">    │ ├── utils-merge@1.0.0 </tspan>
<tspan x="10" y="2538">    │ └── vary@1.1.1 </tspan>
<tspan x="10" y="2554">    ├─┬ express-hbs@1.0.4 </tspan>
<tspan x="10" y="2570">    │ ├─┬ handlebars@4.0.6 </tspan>
<tspan x="10" y="2586">    │ │ ├── async@1.5.2 </tspan>
<tspan x="10" y="2602">    │ │ ├─┬ source-map@0.4.4 </tspan>
<tspan x="10" y="2618">    │ │ │ └── amdefine@1.0.1 </tspan>
<tspan x="10" y="2634">    │ │ └─┬ uglify-js@2.8.22 </tspan>
<tspan x="10" y="2650">    │ │   ├── source-map@0.5.6 </tspan>
<tspan x="10" y="2666">    │ │   ├── uglify-to-browserify@1.0.2 </tspan>
<tspan x="10" y="2682">    │ │   └─┬ yargs@3.10.0 </tspan>
<tspan x="10" y="2698">    │ │     ├── camelcase@1.2.1 </tspan>
<tspan x="10" y="2714">    │ │     ├─┬ cliui@2.1.0 </tspan>
<tspan x="10" y="2730">    │ │     │ ├─┬ center-align@0.1.3 </tspan>
<tspan x="10" y="2746">    │ │     │ │ ├─┬ align-text@0.1.4 </tspan>
<tspan x="10" y="2762">    │ │     │ │ │ ├─┬ kind-of@3.1.0 </tspan>
<tspan x="10" y="2778">    │ │     │ │ │ │ └── is-buffer@1.1.5 </tspan>
<tspan x="10" y="2794">    │ │     │ │ │ ├── longest@1.0.1 </tspan>
<tspan x="10" y="2810">    │ │     │ │ │ └── repeat-string@1.6.1 </tspan>
<tspan x="10" y="2826">    │ │     │ │ └── lazy-cache@1.0.4 </tspan>
<tspan x="10" y="2842">    │ │     │ ├── right-align@0.1.3 </tspan>
<tspan x="10" y="2858">    │ │     │ └── wordwrap@0.0.2 </tspan>
<tspan x="10" y="2874">    │ │     ├── decamelize@1.2.0 </tspan>
<tspan x="10" y="2890">    │ │     └── window-size@0.1.0 </tspan>
<tspan x="10" y="2906">    │ ├─┬ js-beautify@1.6.8 </tspan>
<tspan x="10" y="2922">    │ │ ├─┬ editorconfig@0.13.2 </tspan>
<tspan x="10" y="2938">    │ │ │ ├── bluebird@3.5.0 </tspan>
<tspan x="10" y="2954">    │ │ │ ├─┬ commander@2.9.0 </tspan>
<tspan x="10" y="2970">    │ │ │ │ └── graceful-readlink@1.0.1 </tspan>
<tspan x="10" y="2986">    │ │ │ ├─┬ lru-cache@3.2.0 </tspan>
<tspan x="10" y="3002">    │ │ │ │ └── pseudomap@1.0.2 </tspan>
<tspan x="10" y="3018">    │ │ │ └── sigmund@1.0.1 </tspan>
<tspan x="10" y="3034">    │ │ └─┬ nopt@3.0.6 </tspan>
<tspan x="10" y="3050">    │ │   └── abbrev@1.1.0 </tspan>
<tspan x="10" y="3066">    │ └─┬ readdirp@2.1.0 </tspan>
<tspan x="10" y="3082">    │   ├─┬ readable-stream@2.2.9 </tspan>
<tspan x="10" y="3098">    │   │ ├── buffer-shims@1.0.0 </tspan>
<tspan x="10" y="3114">    │   │ ├── core-util-is@1.0.2 </tspan>
<tspan x="10" y="3130">    │   │ ├── isarray@1.0.0 </tspan>
<tspan x="10" y="3146">    │   │ ├── process-nextick-args@1.0.7 </tspan>
<tspan x="10" y="3162">    │   │ ├── string_decoder@1.0.0 </tspan>
<tspan x="10" y="3178">    │   │ └── util-deprecate@1.0.2 </tspan>
<tspan x="10" y="3194">    │   └── set-immediate-shim@1.0.1 </tspan>
<tspan x="10" y="3210">    ├── flates@0.0.5 </tspan>
<tspan x="10" y="3226">    ├─┬ JSONStream@1.3.1 </tspan>
<tspan x="10" y="3242">    │ ├── jsonparse@1.3.0 </tspan>
<tspan x="10" y="3258">    │ └── through@2.3.8 </tspan>
<tspan x="10" y="3274">    ├─┬ method-override@2.3.8 </tspan>
<tspan x="10" y="3290">    │ └── debug@2.6.3 </tspan>
<tspan x="10" y="3306">    ├─┬ mkdirp@0.5.1 </tspan>
<tspan x="10" y="3322">    │ └── minimist@0.0.8 </tspan>
<tspan x="10" y="3338">    ├─┬ morgan@1.8.1 </tspan>
<tspan x="10" y="3354">    │ ├── basic-auth@1.1.0 </tspan>
<tspan x="10" y="3370">    │ └── on-headers@1.0.1 </tspan>
<tspan x="10" y="3386">    ├── sanitize-caja@0.1.4 </tspan>
<tspan x="10" y="3402">    ├── serve-static@1.12.1 </tspan>
<tspan x="10" y="3418">    ├─┬ write-file-atomic@1.3.1 </tspan>
<tspan x="10" y="3434">    │ ├── graceful-fs@4.1.11 </tspan>
<tspan x="10" y="3450">    │ ├── imurmurhash@0.1.4 </tspan>
<tspan x="10" y="3466">    │ └── slide@1.1.6 </tspan>
<tspan x="10" y="3482">    └─┬ xml2js@0.4.17 </tspan>
<tspan x="10" y="3498">      ├── sax@1.2.2 </tspan>
<tspan x="10" y="3514">      └── xmlbuilder@4.2.1</tspan>
</text>
</svg>
